<svg width="48" height="48" viewBox="0 0 48 48" fill="none" xmlns="http://www.w3.org/2000/svg">
<circle cx="24" cy="24" r="24" fill="white"/>
<path d="M13.0908 31.7673V15.5782H17.1534V17.8385H17.3061C17.5097 17.472 17.7948 17.0953 18.1614 16.7083C18.5279 16.3011 18.9963 15.9651 19.5665 15.7003C20.157 15.4153 20.8799 15.2727 21.7352 15.2727C22.9366 15.2727 23.9243 15.5578 24.6981 16.128C25.4719 16.6982 26.0421 17.4313 26.4086 18.3273H26.4697C26.877 17.5534 27.4777 16.8509 28.2719 16.2196C29.0865 15.5883 30.1657 15.2727 31.5097 15.2727C32.6501 15.2727 33.597 15.5374 34.3505 16.0669C35.1243 16.576 35.6945 17.2683 36.061 18.144C36.4479 19.0196 36.6414 19.9665 36.6414 20.9847V31.7673H32.5788V21.84C32.5788 20.9033 32.3446 20.1396 31.8763 19.5491C31.4283 18.9382 30.7563 18.6327 29.8603 18.6327C29.1475 18.6327 28.5672 18.8262 28.1192 19.2131C27.6915 19.5796 27.3759 20.048 27.1723 20.6182C26.989 21.1883 26.8974 21.7687 26.8974 22.3593V31.7673H22.8348V21.84C22.8348 20.9033 22.6108 20.1396 22.1628 19.5491C21.7148 18.9382 21.0326 18.6327 20.1163 18.6327C19.4035 18.6327 18.8232 18.8262 18.3752 19.2131C17.9475 19.5796 17.6319 20.0582 17.4283 20.6487C17.245 21.2189 17.1534 21.7891 17.1534 22.3593V31.7673H13.0908Z" fill="#FF6D00"/>
</svg>
