<svg width="178" height="40" viewBox="0 0 178 40" fill="none" xmlns="http://www.w3.org/2000/svg">
<path d="M79.9625 6.15129C80.6316 5.79929 81.4822 5.62329 82.5145 5.62329C83.1836 5.62329 83.7571 5.67829 84.235 5.78829L84.9805 5.92029V9.3523L84.493 9.2533C84.1872 9.2093 83.8526 9.1873 83.4894 9.1873C81.9602 9.1873 81.1955 9.96831 81.1955 11.5303L81.1956 20.0878H77.3819L77.3818 11.4313C77.3818 10.7713 77.4583 10.1003 77.6112 9.4183C77.7642 8.7363 78.0222 8.1093 78.3854 7.5373C78.7678 6.96529 79.2934 6.50329 79.9625 6.15129Z" fill="#2196F3"/>
<path d="M156.846 20.0877C155.785 20.0877 154.858 19.8913 154.067 19.4986C153.275 19.0887 152.609 18.5508 152.07 17.8848C151.548 17.2017 151.152 16.4417 150.882 15.6049C150.63 14.7681 150.504 13.9143 150.504 13.0433C150.504 12.1724 150.63 11.3185 150.882 10.4817C151.152 9.64494 151.548 8.89354 152.07 8.22752C152.609 7.54443 153.275 7.00649 154.067 6.61371C154.858 6.20385 155.785 5.99893 156.846 5.99893C157.764 5.99893 158.519 6.14408 159.113 6.4344C159.707 6.70764 160.174 7.01503 160.516 7.35658C160.858 7.68104 161.092 7.94574 161.218 8.15067H161.38V0.363403L164.969 0.363403L164.969 20.0877L161.38 20.0877V17.936H161.218C161.092 18.1409 160.858 18.4142 160.516 18.7557C160.174 19.0972 159.707 19.4046 159.113 19.6779C158.519 19.9511 157.764 20.0877 156.846 20.0877ZM157.791 17.2956C158.6 17.2956 159.275 17.0907 159.815 16.6808C160.354 16.2539 160.759 15.7159 161.029 15.067C161.299 14.4181 161.434 13.7435 161.434 13.0433C161.434 12.3432 161.299 11.6686 161.029 11.0197C160.759 10.3707 160.354 9.84133 159.815 9.43147C159.275 9.00454 158.6 8.79107 157.791 8.79107C156.981 8.79107 156.297 9.00454 155.74 9.43147C155.2 9.84133 154.795 10.3707 154.525 11.0197C154.255 11.6686 154.121 12.3432 154.121 13.0433C154.121 13.7435 154.255 14.4181 154.525 15.067C154.795 15.7159 155.2 16.2539 155.74 16.6808C156.297 17.0907 156.981 17.2956 157.791 17.2956Z" fill="#2196F3"/>
<path d="M137.355 20.0878L137.355 6.53645L140.92 6.53645V8.47966H141.081C141.224 8.24102 141.447 7.95124 141.751 7.61033C142.055 7.25237 142.475 6.94554 143.011 6.68986C143.547 6.41713 144.226 6.28076 145.048 6.28076C146.139 6.28076 147.032 6.5194 147.729 6.99668C148.444 7.45692 148.971 8.07056 149.311 8.83762C149.668 9.60468 149.847 10.4314 149.847 11.3178L149.847 20.0878L146.281 20.0878L146.281 11.778C146.281 11.045 146.067 10.4143 145.638 9.88593C145.209 9.35751 144.566 9.09331 143.708 9.09331C143.047 9.09331 142.511 9.25524 142.1 9.57911C141.689 9.88593 141.385 10.2865 141.188 10.7808C141.009 11.2752 140.92 11.7951 140.92 12.3405L140.92 20.0878L137.355 20.0878Z" fill="#2196F3"/>
<path d="M129.791 20.0878C128.606 20.0878 127.578 19.8862 126.707 19.4829C125.853 19.0621 125.138 18.5099 124.563 17.8261C124.005 17.1248 123.587 16.3446 123.308 15.4855C123.029 14.6264 122.89 13.7497 122.89 12.8555C122.89 11.9614 123.021 11.0935 123.282 10.2519C123.561 9.39283 123.97 8.61262 124.511 7.91131C125.068 7.21 125.774 6.65772 126.628 6.25447C127.482 5.83368 128.493 5.62329 129.661 5.62329C130.916 5.62329 132.022 5.90381 132.981 6.46486C133.939 7.02591 134.689 7.84995 135.229 8.93698C135.769 10.0065 136.039 11.339 136.039 12.9344V13.8286L126.393 13.8286C126.445 14.7754 126.768 15.5994 127.36 16.3007C127.953 16.9845 128.763 17.3264 129.791 17.3264C130.384 17.3264 130.872 17.23 131.255 17.0371C131.639 16.8442 131.935 16.6251 132.144 16.3796C132.353 16.1166 132.502 15.8975 132.589 15.7221C132.676 15.5293 132.719 15.4329 132.719 15.4329L135.935 15.4329C135.935 15.4329 135.891 15.5907 135.804 15.9062C135.717 16.2043 135.551 16.59 135.307 17.0634C135.081 17.5193 134.741 17.9839 134.288 18.4573C133.835 18.9131 133.242 19.2988 132.51 19.6144C131.778 19.93 130.872 20.0878 129.791 20.0878ZM126.393 11.5406L132.693 11.5406C132.641 10.4536 132.319 9.64706 131.726 9.12107C131.133 8.59509 130.436 8.3321 129.635 8.3321C128.746 8.3321 128.005 8.62139 127.413 9.19997C126.82 9.76102 126.48 10.5412 126.393 11.5406Z" fill="#2196F3"/>
<path d="M120.009 20.0877C119.078 20.0877 118.311 19.952 117.708 19.6807C117.105 19.4094 116.631 19.0532 116.286 18.6123C115.958 18.1714 115.726 17.688 115.588 17.1623C115.45 16.6366 115.381 16.1194 115.381 15.6106L115.381 9.073L113.028 9.073L113.028 6.35112L115.381 6.35112V2.99329L118.82 2.99329V6.35112L121.897 6.35112L121.897 9.073L118.82 9.073L118.82 15.5343C118.82 16.7384 119.509 17.3404 120.888 17.3404C121.216 17.3404 121.517 17.3234 121.793 17.2895C122.086 17.2386 122.233 17.2132 122.233 17.2132V19.8588C122.233 19.8588 122.009 19.8927 121.561 19.9605C121.13 20.0453 120.612 20.0877 120.009 20.0877Z" fill="#2196F3"/>
<path d="M100.536 20.0878L100.536 6.53645L104.101 6.53645V8.47966H104.262C104.405 8.24102 104.629 7.95124 104.932 7.61033C105.236 7.25237 105.656 6.94554 106.192 6.68986C106.729 6.41713 107.408 6.28076 108.23 6.28076C109.32 6.28076 110.213 6.5194 110.91 6.99668C111.625 7.45692 112.153 8.07056 112.492 8.83762C112.849 9.60468 113.028 10.4314 113.028 11.3178L113.028 20.0878L109.463 20.0878L109.463 11.778C109.463 11.045 109.248 10.4143 108.82 9.88593C108.391 9.35751 107.747 9.09331 106.889 9.09331C106.228 9.09331 105.692 9.25524 105.281 9.57911C104.87 9.88593 104.566 10.2865 104.37 10.7808C104.191 11.2752 104.101 11.7951 104.101 12.3405L104.101 20.0878L100.536 20.0878Z" fill="#2196F3"/>
<path d="M92.3173 20.0878C90.8453 20.0878 89.5932 19.7459 88.561 19.0621C87.5289 18.3784 86.7421 17.493 86.2006 16.4059C85.6761 15.3014 85.4138 14.1179 85.4138 12.8555C85.4138 11.5932 85.6761 10.4185 86.2006 9.33146C86.7421 8.2269 87.5289 7.33273 88.561 6.64896C89.5932 5.96518 90.8453 5.62329 92.3173 5.62329C93.8063 5.62329 95.0584 5.96518 96.0737 6.64896C97.1058 7.33273 97.8841 8.2269 98.4087 9.33146C98.9501 10.4185 99.2209 11.5932 99.2209 12.8555C99.2209 14.1179 98.9501 15.3014 98.4087 16.4059C97.8841 17.493 97.1058 18.3784 96.0737 19.0621C95.0584 19.7459 93.8063 20.0878 92.3173 20.0878ZM92.3173 17.1686C93.0788 17.1686 93.7133 16.967 94.2209 16.5637C94.7454 16.1605 95.143 15.6345 95.4138 14.9858C95.6845 14.3195 95.8199 13.6095 95.8199 12.8555C95.8199 12.0841 95.6845 11.374 95.4138 10.7253C95.143 10.0766 94.7454 9.55062 94.2209 9.14737C93.7133 8.74412 93.0788 8.54249 92.3173 8.54249C91.5728 8.54249 90.9383 8.74412 90.4138 9.14737C89.8893 9.55062 89.4916 10.0766 89.2209 10.7253C88.9502 11.374 88.8148 12.0841 88.8148 12.8555C88.8148 13.6095 88.9502 14.3195 89.2209 14.9858C89.4916 15.6345 89.8893 16.1605 90.4138 16.5637C90.9383 16.967 91.5728 17.1686 92.3173 17.1686Z" fill="#2196F3"/>
<path d="M69.8373 20.0877L69.8373 9.25216L67.6621 9.25216V6.51125L69.8373 6.51125V5.25606C69.8373 4.74374 69.9055 4.20581 70.042 3.64225C70.1785 3.06162 70.4088 2.52369 70.733 2.02844C71.0742 1.5332 71.5433 1.13188 72.1404 0.824492C72.7546 0.517099 73.5223 0.363403 74.4436 0.363403C74.9554 0.363403 75.3734 0.406097 75.6975 0.491483C76.0387 0.559793 76.2093 0.593948 76.2093 0.593948V3.0787C76.2093 3.0787 76.0984 3.06162 75.8766 3.02747C75.6549 2.97624 75.416 2.95062 75.1601 2.95062C74.4265 2.95062 73.9232 3.16409 73.6503 3.59102C73.3773 4.01795 73.2408 4.57297 73.2408 5.25606V6.51125L76.1325 6.51125V9.25216L73.2408 9.25216L73.2408 20.0877L69.8373 20.0877Z" fill="#2196F3"/>
<path d="M91.5692 30.503L90.4305 30.8253C90.3588 30.6355 90.2532 30.4511 90.1135 30.272C89.9774 30.0894 89.7912 29.939 89.5549 29.8208C89.3185 29.7026 89.0159 29.6435 88.6471 29.6435C88.1421 29.6435 87.7214 29.7599 87.3847 29.9927C87.0517 30.2219 86.8852 30.5138 86.8852 30.8683C86.8852 31.1834 86.9998 31.4323 87.229 31.6149C87.4581 31.7976 87.8163 31.9498 88.3033 32.0715L89.528 32.3723C90.2657 32.5514 90.8154 32.8253 91.1771 33.1942C91.5388 33.5595 91.7197 34.0304 91.7197 34.6069C91.7197 35.0796 91.5836 35.5022 91.3114 35.8747C91.0428 36.2471 90.6668 36.5407 90.1834 36.7556C89.6999 36.9705 89.1377 37.0779 88.4967 37.0779C87.6551 37.0779 86.9586 36.8953 86.4071 36.53C85.8556 36.1647 85.5064 35.6311 85.3596 34.9292L86.5629 34.6284C86.6775 35.0725 86.8941 35.4055 87.2128 35.6276C87.5351 35.8496 87.9559 35.9606 88.4752 35.9606C89.0661 35.9606 89.5352 35.8353 89.8825 35.5846C90.2335 35.3303 90.409 35.0259 90.409 34.6714C90.409 34.3849 90.3087 34.145 90.1082 33.9516C89.9076 33.7546 89.5996 33.6078 89.1842 33.5111L87.8091 33.1888C87.0535 33.0098 86.4984 32.7322 86.1439 32.3562C85.7929 31.9766 85.6175 31.5021 85.6175 30.9327C85.6175 30.4672 85.7482 30.0554 86.0096 29.6973C86.2746 29.3392 86.6345 29.058 87.0893 28.8539C87.5477 28.6498 88.0669 28.5477 88.6471 28.5477C89.4636 28.5477 90.1046 28.7268 90.5701 29.0849C91.0392 29.443 91.3723 29.9157 91.5692 30.503Z" fill="#596B7A"/>
<path d="M78.1442 31.9426L78.1442 36.906H76.8765L76.8765 28.6552L78.1012 28.6552V29.9444H78.2086C78.402 29.5254 78.6957 29.1887 79.0896 28.9345C79.4835 28.6766 79.992 28.5477 80.6151 28.5477C81.1738 28.5477 81.6626 28.6623 82.0816 28.8915C82.5006 29.1171 82.8265 29.4609 83.0592 29.9229C83.292 30.3813 83.4084 30.9614 83.4084 31.6633L83.4084 36.906L82.1407 36.906L82.1407 31.7492C82.1407 31.1011 81.9724 30.5961 81.6357 30.2344C81.2991 29.8692 80.8372 29.6865 80.2499 29.6865C79.8452 29.6865 79.4835 29.7743 79.1648 29.9497C78.8497 30.1252 78.6008 30.3813 78.4181 30.7179C78.2355 31.0545 78.1442 31.4627 78.1442 31.9426Z" fill="#596B7A"/>
<path d="M71.248 36.9061L71.248 28.6553L72.4728 28.6553V29.9015H72.5587C72.7091 29.4933 72.9813 29.162 73.3752 28.9078C73.7691 28.6535 74.2132 28.5264 74.7074 28.5264C74.8005 28.5264 74.9169 28.5282 75.0565 28.5317C75.1962 28.5353 75.3019 28.5407 75.3735 28.5479V29.837C75.3305 29.8263 75.232 29.8102 75.078 29.7887C74.9276 29.7636 74.7683 29.7511 74.6 29.7511C74.1989 29.7511 73.8408 29.8353 73.5256 30.0036C73.2141 30.1683 72.967 30.3975 72.7843 30.6911C72.6053 30.9812 72.5158 31.3125 72.5158 31.6849L72.5158 36.9061H71.248Z" fill="#596B7A"/>
<path d="M65.9032 37.0779C65.1082 37.0779 64.4224 36.9024 63.8459 36.5515C63.2729 36.197 62.8306 35.7028 62.5191 35.0689C62.2111 34.4315 62.0571 33.6902 62.0571 32.845C62.0571 31.9999 62.2111 31.255 62.5191 30.6104C62.8306 29.9623 63.264 29.4573 63.819 29.0956C64.3777 28.7304 65.0294 28.5477 65.7743 28.5477C66.204 28.5477 66.6284 28.6194 67.0474 28.7626C67.4664 28.9058 67.8478 29.1386 68.1915 29.4609C68.5353 29.7796 68.8093 30.2022 69.0134 30.7286C69.2175 31.255 69.3196 31.9032 69.3196 32.6732L69.3196 33.2103L62.9596 33.2103V32.1145L68.0304 32.1145C68.0304 31.649 67.9373 31.2336 67.7511 30.8683C67.5684 30.503 67.307 30.2147 66.9668 30.0034C66.6302 29.7922 66.2327 29.6865 65.7743 29.6865C65.2694 29.6865 64.8325 29.8119 64.4636 30.0625C64.0984 30.3096 63.8172 30.6319 63.6203 31.0294C63.4233 31.4269 63.3248 31.8531 63.3248 32.3079V33.0384C63.3248 33.6615 63.4323 34.1897 63.6471 34.6231C63.8656 35.0528 64.1682 35.3805 64.5549 35.6061C64.9417 35.8281 65.3911 35.9391 65.9032 35.9391C66.2363 35.9391 66.5371 35.8926 66.8057 35.7994C67.0778 35.7028 67.3124 35.5595 67.5093 35.3697C67.7063 35.1763 67.8585 34.9364 67.9659 34.6499L69.1907 34.9937C69.0618 35.4091 68.8451 35.7744 68.5407 36.0895C68.2363 36.4011 67.8603 36.6446 67.4127 36.8201C66.965 36.992 66.4619 37.0779 65.9032 37.0779Z" fill="#596B7A"/>
<path d="M60.6257 28.6554L60.6257 29.7297L56.3499 29.7297L56.3499 28.6554L60.6257 28.6554ZM57.5961 26.6786H58.8638L58.8638 34.5427C58.8638 34.9008 58.9157 35.1694 59.0196 35.3484C59.127 35.5239 59.2631 35.6421 59.4278 35.703C59.5961 35.7602 59.7734 35.7889 59.9596 35.7889C60.0993 35.7889 60.2139 35.7817 60.3034 35.7674C60.3929 35.7495 60.4645 35.7352 60.5183 35.7244L60.7761 36.8632C60.6901 36.8955 60.5702 36.9277 60.4162 36.9599C60.2622 36.9957 60.067 37.0136 59.8307 37.0136C59.4726 37.0136 59.1216 36.9366 58.7778 36.7827C58.4376 36.6287 58.1547 36.3941 57.9291 36.079C57.7071 35.7638 57.5961 35.3663 57.5961 34.8865L57.5961 26.6786Z" fill="#596B7A"/>
<path d="M55.1306 28.6554L55.1306 29.7297L50.8547 29.7297L50.8547 28.6554L55.1306 28.6554ZM52.101 26.6786H53.3687L53.3687 34.5427C53.3687 34.9008 53.4206 35.1694 53.5244 35.3484C53.6319 35.5239 53.768 35.6421 53.9327 35.703C54.101 35.7602 54.2783 35.7889 54.4645 35.7889C54.6041 35.7889 54.7187 35.7817 54.8083 35.7674C54.8978 35.7495 54.9694 35.7352 55.0231 35.7244L55.281 36.8632C55.195 36.8955 55.0751 36.9277 54.9211 36.9599C54.7671 36.9957 54.5719 37.0136 54.3356 37.0136C53.9775 37.0136 53.6265 36.9366 53.2827 36.7827C52.9425 36.6287 52.6596 36.3941 52.434 36.079C52.212 35.7638 52.101 35.3663 52.101 34.8865L52.101 26.6786Z" fill="#596B7A"/>
<path d="M45.4466 37.0994C44.9237 37.0994 44.4492 37.0009 44.0231 36.8039C43.5969 36.6034 43.2585 36.3151 43.0079 35.9391C42.7572 35.5595 42.6318 35.1011 42.6318 34.564C42.6318 34.0913 42.7249 33.7081 42.9112 33.4144C43.0974 33.1172 43.3463 32.8844 43.6578 32.7161C43.9694 32.5478 44.3132 32.4225 44.6892 32.3401C45.0688 32.2542 45.4502 32.1861 45.8333 32.136C46.3347 32.0715 46.7411 32.0232 47.0527 31.991C47.3678 31.9551 47.597 31.8961 47.7403 31.8137C47.8871 31.7313 47.9605 31.5881 47.9605 31.384V31.341C47.9605 30.811 47.8155 30.3992 47.5254 30.1055C47.2389 29.8119 46.8038 29.665 46.2201 29.665C45.6149 29.665 45.1404 29.7975 44.7966 30.0625C44.4528 30.3275 44.2111 30.6104 44.0714 30.9113L42.8682 30.4815C43.0831 29.9802 43.3695 29.5898 43.7277 29.3105C44.0893 29.0276 44.4833 28.8306 44.9094 28.7196C45.3391 28.605 45.7617 28.5477 46.1771 28.5477C46.4421 28.5477 46.7465 28.58 47.0903 28.6444C47.4377 28.7053 47.7725 28.8324 48.0948 29.0258C48.4207 29.2192 48.6911 29.511 48.9059 29.9014C49.1208 30.2917 49.2282 30.8146 49.2282 31.4699L49.2282 36.906L47.9605 36.906V35.7887H47.896C47.8101 35.9678 47.6669 36.1593 47.4663 36.3635C47.2658 36.5676 46.999 36.7413 46.6659 36.8845C46.3329 37.0278 45.9264 37.0994 45.4466 37.0994ZM45.64 35.9606C46.1413 35.9606 46.5639 35.8621 46.9077 35.6652C47.255 35.4682 47.5165 35.2139 47.6919 34.9024C47.871 34.5908 47.9605 34.2632 47.9605 33.9194V32.7591C47.9068 32.8236 47.7886 32.8826 47.606 32.9364C47.4269 32.9865 47.2192 33.0313 46.9829 33.0707C46.7501 33.1065 46.5227 33.1387 46.3007 33.1673C46.0822 33.1924 45.905 33.2139 45.7689 33.2318C45.4394 33.2748 45.1314 33.3446 44.845 33.4413C44.562 33.5344 44.3329 33.6759 44.1574 33.8657C43.9855 34.0519 43.8995 34.3061 43.8995 34.6284C43.8995 35.0689 44.0625 35.4019 44.3884 35.6276C44.7178 35.8496 45.135 35.9606 45.64 35.9606Z" fill="#596B7A"/>
<path d="M33.8008 40.0001L33.8008 28.6552L35.0255 28.6552V29.9658H35.1759C35.269 29.8226 35.3979 29.64 35.5627 29.4179C35.731 29.1923 35.9709 28.9918 36.2825 28.8163C36.5976 28.6373 37.0238 28.5477 37.5609 28.5477C38.2557 28.5477 38.868 28.7214 39.398 29.0688C39.928 29.4161 40.3417 29.9085 40.6389 30.546C40.9361 31.1834 41.0847 31.9354 41.0847 32.8021C41.0847 33.6759 40.9361 34.4333 40.6389 35.0743C40.3417 35.7117 39.9298 36.2059 39.4034 36.5569C38.877 36.9042 38.27 37.0779 37.5824 37.0779C37.0524 37.0779 36.6281 36.9902 36.3093 36.8147C35.9906 36.6356 35.7453 36.4333 35.5734 36.2077C35.4015 35.9785 35.269 35.7887 35.1759 35.6383H35.0685L35.0685 40.0001H33.8008ZM35.047 32.7806C35.047 33.4037 35.1383 33.9534 35.321 34.4297C35.5036 34.9024 35.7704 35.273 36.1213 35.5416C36.4723 35.8066 36.902 35.9391 37.4105 35.9391C37.9405 35.9391 38.3828 35.7995 38.7373 35.5201C39.0954 35.2372 39.364 34.8576 39.5431 34.3813C39.7257 33.9015 39.817 33.3679 39.817 32.7806C39.817 32.2004 39.7275 31.6776 39.5484 31.2121C39.373 30.7429 39.1062 30.3723 38.7481 30.1001C38.3935 29.8244 37.9477 29.6865 37.4105 29.6865C36.8948 29.6865 36.4615 29.8172 36.1106 30.0786C35.7596 30.3365 35.4946 30.6982 35.3156 31.1637C35.1365 31.6257 35.047 32.1646 35.047 32.7806Z" fill="#596B7A"/>
<path d="M31.5701 31.599V32.7808L26.7571 32.7808L26.7571 31.599L31.5701 31.599Z" fill="#596B7A"/>
<path d="M23.2542 36.9061L23.2542 28.6552L24.5219 28.6552L24.5219 36.9061H23.2542ZM23.8988 27.2801C23.6517 27.2801 23.4386 27.1959 23.2595 27.0276C23.0841 26.8593 22.9963 26.657 22.9963 26.4206C22.9963 26.1843 23.0841 25.9819 23.2595 25.8136C23.4386 25.6453 23.6517 25.5612 23.8988 25.5612C24.1459 25.5612 24.3572 25.6453 24.5326 25.8136C24.7117 25.9819 24.8012 26.1843 24.8012 26.4206C24.8012 26.657 24.7117 26.8593 24.5326 27.0276C24.3572 27.1959 24.1459 27.2801 23.8988 27.2801Z" fill="#596B7A"/>
<path d="M21.3469 28.6554L21.3469 29.7297L17.071 29.7297V28.6554L21.3469 28.6554ZM18.3173 26.6786H19.585L19.585 34.5427C19.585 34.9008 19.6369 35.1694 19.7408 35.3484C19.8482 35.5239 19.9843 35.6421 20.149 35.703C20.3173 35.7602 20.4946 35.7889 20.6808 35.7889C20.8205 35.7889 20.935 35.7817 21.0246 35.7674C21.1141 35.7495 21.1857 35.7352 21.2394 35.7244L21.4973 36.8632C21.4113 36.8955 21.2914 36.9277 21.1374 36.9599C20.9834 36.9957 20.7882 37.0136 20.5519 37.0136C20.1938 37.0136 19.8428 36.9366 19.499 36.7827C19.1588 36.6287 18.8759 36.3941 18.6503 36.079C18.4283 35.7638 18.3173 35.3663 18.3173 34.8865L18.3173 26.6786Z" fill="#596B7A"/>
<path d="M10.1776 31.9426L10.1776 36.906H8.90991L8.90991 28.6552L10.1346 28.6552L10.1346 29.9444H10.2421C10.4355 29.5254 10.7291 29.1887 11.123 28.9345C11.5169 28.6766 12.0255 28.5477 12.6486 28.5477C13.2072 28.5477 13.696 28.6623 14.115 28.8915C14.534 29.1171 14.8599 29.4609 15.0927 29.9229C15.3254 30.3813 15.4418 30.9614 15.4418 31.6633L15.4418 36.906L14.1741 36.906L14.1741 31.7492C14.1741 31.1011 14.0058 30.5961 13.6692 30.2344C13.3326 29.8692 12.8706 29.6865 12.2833 29.6865C11.8786 29.6865 11.517 29.7743 11.1982 29.9497C10.8831 30.1252 10.6342 30.3813 10.4516 30.7179C10.2689 31.0545 10.1776 31.4627 10.1776 31.9426Z" fill="#596B7A"/>
<path d="M2.81474 37.0994C2.2919 37.0994 1.81741 37.0009 1.39126 36.8039C0.965105 36.6034 0.626692 36.3151 0.376015 35.9391C0.125338 35.5595 0 35.1011 0 34.564C0 34.0913 0.0931085 33.7081 0.279325 33.4144C0.465542 33.1172 0.714429 32.8844 1.02598 32.7161C1.33754 32.5478 1.68132 32.4225 2.05734 32.3401C2.43694 32.2542 2.81832 32.1861 3.2015 32.136C3.70285 32.0715 4.10931 32.0232 4.42086 31.991C4.736 31.9551 4.96519 31.8961 5.10843 31.8137C5.25526 31.7313 5.32867 31.5881 5.32867 31.384V31.341C5.32867 30.811 5.18364 30.3992 4.89357 30.1055C4.60708 29.8119 4.17198 29.665 3.58826 29.665C2.98305 29.665 2.50856 29.7975 2.16477 30.0625C1.82099 30.3275 1.57926 30.6104 1.4396 30.9113L0.236352 30.4815C0.451218 29.9802 0.737706 29.5898 1.09582 29.3105C1.45751 29.0276 1.85143 28.8306 2.27758 28.7196C2.70731 28.605 3.12988 28.5477 3.54528 28.5477C3.81029 28.5477 4.11468 28.58 4.45846 28.6444C4.80583 28.7053 5.14066 28.8324 5.46296 29.0258C5.78884 29.2192 6.05921 29.511 6.27408 29.9014C6.48895 30.2917 6.59638 30.8146 6.59638 31.4699L6.59638 36.906L5.32867 36.906L5.32867 35.7887H5.26421C5.17827 35.9678 5.03502 36.1593 4.83448 36.3635C4.63394 36.5676 4.36715 36.7413 4.0341 36.8845C3.70106 37.0278 3.29461 37.0994 2.81474 37.0994ZM3.00812 35.9606C3.50947 35.9606 3.93204 35.8621 4.27583 35.6652C4.6232 35.4682 4.88461 35.2139 5.06009 34.9024C5.23914 34.5908 5.32867 34.2632 5.32867 33.9194L5.32867 32.7591C5.27495 32.8236 5.15678 32.8826 4.97414 32.9364C4.79509 32.9865 4.58738 33.0313 4.35103 33.0707C4.11826 33.1065 3.89086 33.1387 3.66883 33.1673C3.45039 33.1924 3.27312 33.2139 3.13704 33.2318C2.80758 33.2748 2.49961 33.3446 2.21312 33.4413C1.93021 33.5344 1.70102 33.6759 1.52555 33.8657C1.35365 34.0519 1.26771 34.3061 1.26771 34.6284C1.26771 35.0689 1.43065 35.4019 1.75653 35.6276C2.08599 35.8496 2.50319 35.9606 3.00812 35.9606Z" fill="#596B7A"/>
<path d="M44.9147 6.51177C45.5837 6.15976 46.4344 5.98376 47.4667 5.98376C48.1357 5.98376 48.7092 6.03877 49.1871 6.14877L49.9326 6.28077V9.71278L49.4452 9.61378C49.1393 9.56978 48.8048 9.54778 48.4416 9.54778C46.9123 9.54778 46.1477 10.3288 46.1477 11.8908L46.1477 20.053H42.334L42.334 11.7918C42.334 11.1318 42.4104 10.4608 42.5634 9.77878C42.7163 9.09677 42.9744 8.46977 43.3376 7.89777C43.7199 7.32577 44.2456 6.86377 44.9147 6.51177Z" fill="#FF6D00"/>
<path d="M57.1648 20.1659C55.6614 20.1659 54.3827 19.829 53.3286 19.155C52.2745 18.4811 51.471 17.6085 50.918 16.5371C50.3823 15.4484 50.1145 14.282 50.1145 13.0379C50.1145 11.7937 50.3823 10.6359 50.918 9.56454C51.471 8.47589 52.2745 7.59461 53.3286 6.92068C54.3827 6.24675 55.6614 5.90979 57.1648 5.90979C58.6855 5.90979 59.9642 6.24675 61.001 6.92068C62.0551 7.59461 62.85 8.47589 63.3857 9.56454C63.9386 10.6359 64.2151 11.7937 64.2151 13.0379C64.2151 14.282 63.9386 15.4484 63.3857 16.5371C62.85 17.6085 62.0551 18.4811 61.001 19.155C59.9642 19.829 58.6855 20.1659 57.1648 20.1659ZM57.1648 17.2888C57.9424 17.2888 58.5904 17.0901 59.1088 16.6926C59.6445 16.2952 60.0506 15.7768 60.3271 15.1374C60.6036 14.4807 60.7418 13.7809 60.7418 13.0379C60.7418 12.2775 60.6036 11.5777 60.3271 10.9383C60.0506 10.2989 59.6445 9.78054 59.1088 9.3831C58.5904 8.98566 57.9424 8.78694 57.1648 8.78694C56.4045 8.78694 55.7565 8.98566 55.2208 9.3831C54.6851 9.78054 54.279 10.2989 54.0025 10.9383C53.7261 11.5777 53.5878 12.2775 53.5878 13.0379C53.5878 13.7809 53.7261 14.4807 54.0025 15.1374C54.279 15.7768 54.6851 16.2952 55.2208 16.6926C55.7565 17.0901 56.4045 17.2888 57.1648 17.2888Z" fill="#FF6D00"/>
<path d="M34.1545 20.1659C32.9795 20.1659 31.9513 19.9672 31.07 19.5698C30.1887 19.155 29.4543 18.6107 28.8668 17.9368C28.2793 17.2456 27.8386 16.4766 27.5449 15.6299C27.2684 14.7831 27.1301 13.9191 27.1301 13.0379C27.1301 12.1566 27.2684 11.2926 27.5449 10.4458C27.8386 9.5991 28.2706 8.83878 28.8409 8.16485C29.4284 7.47364 30.1628 6.92932 31.0441 6.53188C31.9254 6.11715 32.9622 5.90979 34.1545 5.90979C35.3296 5.90979 36.3059 6.08259 37.0835 6.42819C37.8611 6.7738 38.4746 7.2058 38.9238 7.72421C39.3904 8.24261 39.736 8.76102 39.9606 9.27942C40.1853 9.78054 40.3322 10.2039 40.4013 10.5495C40.4704 10.8951 40.505 11.0679 40.505 11.0679L37.2649 11.0679C37.2649 11.0679 37.2304 10.9556 37.1613 10.731C37.0921 10.489 36.9539 10.2125 36.7465 9.90151C36.5392 9.59046 36.2281 9.31398 35.8134 9.07206C35.416 8.83014 34.8803 8.70917 34.2064 8.70917C33.4115 8.70917 32.7375 8.91654 32.1846 9.33126C31.6489 9.72871 31.2428 10.2557 30.9663 10.9124C30.6898 11.569 30.5516 12.2775 30.5516 13.0379C30.5516 13.7982 30.6898 14.5067 30.9663 15.1633C31.2428 15.82 31.6489 16.3556 32.1846 16.7704C32.7375 17.1678 33.4115 17.3665 34.2064 17.3665C34.8803 17.3665 35.416 17.2456 35.8134 17.0037C36.2281 16.7617 36.5392 16.4852 36.7465 16.1742C36.9539 15.8632 37.0921 15.5953 37.1613 15.3707C37.2304 15.1288 37.2649 15.0078 37.2649 15.0078L40.505 15.0078C40.505 15.0078 40.4704 15.1806 40.4013 15.5262C40.3322 15.8718 40.1853 16.3038 39.9606 16.8222C39.736 17.3233 39.3904 17.8331 38.9238 18.3515C38.4746 18.8699 37.8611 19.3019 37.0835 19.6475C36.3059 19.9931 35.3296 20.1659 34.1545 20.1659Z" fill="#FF6D00"/>
<path d="M23.6398 4.04356C23.035 4.04356 22.5339 3.84483 22.1364 3.44739C21.7562 3.04995 21.5662 2.57474 21.5662 2.02178C21.5662 1.46881 21.7562 0.993607 22.1364 0.596164C22.5339 0.198721 23.035 0 23.6398 0C24.2446 0 24.7457 0.198721 25.1432 0.596164C25.5406 0.993607 25.7393 1.46881 25.7393 2.02178C25.7393 2.57474 25.5406 3.04995 25.1432 3.44739C24.7457 3.84483 24.2446 4.04356 23.6398 4.04356ZM21.929 19.9067L21.929 6.16901L25.3764 6.16901L25.3764 19.9067L21.929 19.9067Z" fill="#FF6D00"/>
<path d="M0 19.9067L0 6.16899L3.44739 6.16899L3.44739 8.08709L3.57699 8.08709C3.74979 7.77605 3.99172 7.45636 4.30276 7.12804C4.6138 6.78244 5.01124 6.49732 5.49509 6.27267C5.99621 6.03075 6.60966 5.90979 7.33543 5.90979C8.35495 5.90979 9.19304 6.15171 9.84969 6.63556C10.5063 7.1194 10.9902 7.74149 11.3012 8.50181H11.3531C11.6987 7.84517 12.2084 7.249 12.8824 6.71332C13.5736 6.17763 14.4894 5.90979 15.6299 5.90979C16.5976 5.90979 17.4011 6.13443 18.0405 6.58372C18.6971 7.01572 19.181 7.60325 19.492 8.34629C19.8203 9.08934 19.9845 9.89286 19.9845 10.7569L19.9845 19.9067L16.5371 19.9067L16.5371 11.4826C16.5371 10.6878 16.3384 10.0397 15.9409 9.53862C15.5608 9.02022 14.9905 8.76102 14.2302 8.76102C13.6254 8.76102 13.1329 8.92518 12.7528 9.2535C12.3899 9.56454 12.122 9.96199 11.9492 10.4458C11.7937 10.9297 11.7159 11.4222 11.7159 11.9233L11.7159 19.9067L8.26855 19.9067L8.26855 11.4826C8.26855 10.6878 8.07847 10.0397 7.69831 9.53862C7.31815 9.02022 6.73926 8.76102 5.96165 8.76102C5.35685 8.76102 4.86436 8.92518 4.4842 9.2535C4.12132 9.56454 3.85347 9.97063 3.68067 10.4718C3.52515 10.9556 3.44739 11.4394 3.44739 11.9233L3.44739 19.9067L0 19.9067Z" fill="#FF6D00"/>
<path d="M172.141 20.0878C171.032 20.0878 170.12 19.9388 169.404 19.6407C168.688 19.3251 168.117 18.9394 167.69 18.4836C167.281 18.0102 166.974 17.5456 166.77 17.0897C166.565 16.6339 166.429 16.2569 166.36 15.9588C166.309 15.6433 166.284 15.4855 166.284 15.4855H169.506C169.506 15.4855 169.532 15.5819 169.583 15.7747C169.651 15.9676 169.771 16.1955 169.941 16.4585C170.129 16.704 170.41 16.9231 170.785 17.116C171.16 17.3089 171.655 17.4053 172.269 17.4053C173.002 17.4053 173.53 17.2475 173.854 16.9319C174.178 16.5988 174.34 16.2306 174.34 15.8273C174.34 15.4416 174.195 15.1348 173.906 14.9069C173.633 14.6614 173.224 14.4773 172.678 14.3546L170.811 13.9601C170.061 13.8023 169.361 13.5744 168.714 13.2763C168.066 12.9607 167.537 12.54 167.128 12.014C166.718 11.4705 166.514 10.7779 166.514 9.93634C166.514 8.69152 166.974 7.66585 167.895 6.85935C168.816 6.03531 170.069 5.62329 171.655 5.62329C172.661 5.62329 173.488 5.76355 174.136 6.04408C174.801 6.3246 175.329 6.67526 175.722 7.09604C176.131 7.51683 176.429 7.93761 176.617 8.3584C176.821 8.77918 176.949 9.13861 177 9.43666C177.069 9.71719 177.103 9.85745 177.103 9.85745H173.982C173.982 9.85745 173.957 9.77855 173.906 9.62076C173.854 9.44543 173.744 9.25257 173.573 9.04218C173.42 8.83178 173.181 8.64769 172.857 8.48989C172.55 8.31457 172.132 8.2269 171.604 8.2269C170.888 8.2269 170.376 8.3847 170.069 8.70029C169.779 9.01588 169.634 9.349 169.634 9.69965C169.634 10.0854 169.796 10.3834 170.12 10.5938C170.444 10.8042 170.862 10.962 171.374 11.0672L173.138 11.4617C174.4 11.7247 175.432 12.1805 176.233 12.8292C177.052 13.478 177.461 14.416 177.461 15.6433C177.461 16.4673 177.248 17.2212 176.821 17.905C176.412 18.5712 175.807 19.106 175.005 19.5092C174.221 19.8949 173.266 20.0878 172.141 20.0878Z" fill="#2196F3"/>
</svg>
