<svg width="80" height="80" viewBox="0 0 80 80" fill="none" xmlns="http://www.w3.org/2000/svg">
<path d="M51.9999 29.0002C51.9999 41.7028 41.7025 52.0002 28.9999 52.0002C16.2974 52.0002 5.99994 41.7028 5.99994 29.0002C5.99994 16.2977 16.2974 6.00024 28.9999 6.00024C41.7025 6.00024 51.9999 16.2977 51.9999 29.0002Z" fill="#64B5F6" fill-opacity="0.5"/>
<path d="M29.5875 59.175C21.3182 59.175 14.3196 56.311 8.59175 50.5832C2.86392 44.8554 0 37.8568 0 29.5875C0 21.3182 2.86392 14.3196 8.59175 8.59175C14.3196 2.86392 21.3182 0 29.5875 0C37.8568 0 44.8554 2.86392 50.5832 8.59175C56.311 14.3196 59.175 21.3182 59.175 29.5875C59.175 32.9256 58.6439 36.074 57.5818 39.0327C56.5197 41.9915 55.0782 44.6088 53.2575 46.8848L78.7482 72.3755C79.5827 73.2101 80 74.2722 80 75.5619C80 76.8516 79.5827 77.9137 78.7482 78.7482C77.9137 79.5827 76.8516 80 75.5619 80C74.2722 80 73.2101 79.5827 72.3755 78.7482L46.8848 53.2575C44.6088 55.0782 41.9915 56.5197 39.0327 57.5818C36.074 58.6439 32.9256 59.175 29.5875 59.175ZM29.5875 50.0711C35.2774 50.0711 40.1138 48.0797 44.0967 44.0967C48.0797 40.1138 50.0711 35.2774 50.0711 29.5875C50.0711 23.8976 48.0797 19.0612 44.0967 15.0782C40.1138 11.0953 35.2774 9.10384 29.5875 9.10384C23.8976 9.10384 19.0612 11.0953 15.0782 15.0782C11.0953 19.0612 9.10384 23.8976 9.10384 29.5875C9.10384 35.2774 11.0953 40.1138 15.0782 44.0967C19.0612 48.0797 23.8976 50.0711 29.5875 50.0711Z" fill="#2196F3"/>
<path fill-rule="evenodd" clip-rule="evenodd" d="M19.8787 19.8784C21.0503 18.7069 22.9497 18.7069 24.1213 19.8784L38.1213 33.8784C39.2929 35.05 39.2929 36.9495 38.1213 38.1211C36.9497 39.2926 35.0503 39.2926 33.8787 38.1211L19.8787 24.1211C18.7071 22.9495 18.7071 21.05 19.8787 19.8784Z" fill="white"/>
<path fill-rule="evenodd" clip-rule="evenodd" d="M19.8787 38.1211C18.7071 36.9495 18.7071 35.05 19.8787 33.8784L33.8787 19.8784C35.0503 18.7069 36.9497 18.7069 38.1213 19.8784C39.2929 21.05 39.2929 22.9495 38.1213 24.1211L24.1213 38.1211C22.9497 39.2926 21.0503 39.2926 19.8787 38.1211Z" fill="white"/>
</svg>
